<?xml version="1.0" encoding="UTF-8"?>
<svg id="Calque_1" xmlns="http://www.w3.org/2000/svg" version="1.1" viewBox="0 0 998.92 256.34">
  <!-- Generator: Adobe Illustrator 30.5.1, SVG Export Plug-In . SVG Version: 2.1.4 Build 3)  -->
  <defs>
    <style>
      .st0 {
        fill: #0a0;
        stroke: #0a0;
      }

      .st0, .st1, .st2 {
        stroke-width: 3.5px;
      }

      .st1 {
        fill: green;
        stroke: green;
      }

      .st2 {
        fill: #050;
        stroke: #050;
      }
    </style>
  </defs>
  <path class="st2" d="M309.17,69.59v9l3.3,1.4c4.4,1.8,7.4,5.4,9.6,11.2,5.5,14.2,28.8,74.2,29.6,75.9.4,1.1.7,2.3.7,2.7-.1.5.3.8.9.8.5,0,.8.4.4.9-.5.9,1.3,6.1,2.6,7.1.3.3.6,1.2.6,2,0,1.4,2.2,8.1,6.8,20,.7,1.9,1.9,4.9,2.5,6.7l1.2,3.2,19.6-.2,19.6-.2,2.9-7.5c1.5-4.1,7.2-19.9,12.7-35,5.4-15.1,14-39,19-53,8.6-23.9,13.4-35.1,14.9-34.7.3,0,1.6-.4,2.9-1.1,2-1.2,2.2-2,2.2-9.8v-8.4l-25.2.2-25.3.3-.3,9.1-.3,9.1,3.3.8c1.8.4,3.7.7,4.1.6.5-.1.6.3.3.8-.4.5-.2,1.2.2,1.5.5.3-1,6.1-3.4,12.8-8.4,24.3-22.5,65.3-22.8,66.8-.9,3.7-1.9,6-2.5,6-.4,0-3.2-7.3-6.3-16.3-3.1-8.9-7.2-20.7-9.2-26.2-16.2-46.1-15.5-42.8-9.6-45.3l4-1.7v-18.4l-29.5-.1h-29.5v9h0ZM819.37,71.39c-.9.3-1.2,4.4-1.2,14.3v13.9h-15v23h14.9l.3,32.2c.3,31,.4,32.5,2.6,38,2.6,6.4,10.5,15.3,12.9,14.4.8-.3,1.1-.1.8.4-.6.9.8,1.4,2.8,1.1.4,0,.7.4.7,1s.7.8,1.7.5c.9-.4,2-.1,2.4.5.4.7,4.5,1.4,10,1.7,9.5.5,17.2-.8,25.4-4.2,3.1-1.3,3.4-1.8,2.6-3.8-.5-1.3-2-6.1-3.2-10.7-1.3-4.6-2.8-8.5-3.4-8.7-.6-.3-3.3.2-6,1-4.5,1.4-5.2,1.4-7.9-.2-1.6-.9-3.8-3-5-4.5-2-2.7-2.1-4.3-2.4-30.7l-.4-27.9,11.7-.3,11.8-.3.1-10.2c0-5.7-.3-10.3-.7-10.3-.5,0-.5-.5-.2-1,.4-.6-3.5-1-10.9-1h-11.6l-.2-13.3c0-7.2-.1-13.7-.1-14.3,0-.8-4.7-1.1-15.6-1.1-8.7,0-16.2.2-16.9.5h0ZM496.67,96.99c-8.8,1.7-17.5,6-24.3,12.1-5.7,5.1-11.5,12.8-10.5,13.9.4.3.1.6-.6.6s-.9.4-.6,1c.3.5.1,1-.5,1s-.8.4-.5,1c.3.5.1,1-.5,1s-.8.4-.5,1c.3.5.2,1-.4,1-.8,0-2.4,4.6-2.6,7.5,0,.5-.4,1.6-.9,2.4-1.8,2.8-1.8,23.2,0,30.8.9,4,2,7.3,2.3,7.3.4,0,.7,1,.8,2.1.3,3.3,6.3,12.6,11.3,17.2,2.4,2.3,4.7,4.1,5,4s.9.5,1.4,1.4c1.1,2.1,13.9,7.8,20.4,9.2,7.5,1.6,25.4,1.3,33.7-.4,7.2-1.6,19.4-6.8,25.7-11.1,2.6-1.9,3.5-3.1,3.3-4.7-.7-4.2-5.8-16.7-6.6-16.1-.5.3-.6-.1-.3-.9.8-2.3-2.8-3.1-4.4-1-.7,1-1.6,1.7-2,1.7-.4-.1-2.3.6-4.2,1.6-13.9,7-28.1,8.3-38.6,3.6-5.1-2.3-6.6-3.6-9.2-8-1.8-2.8-3.2-5.7-3.2-6.4,0-1.4.2-1.4,19.9-4.8,18-3,32-6.4,39-9.5,7-3,8.6-6.5,8.6-18.9,0-8.4-.4-10.2-2.9-15.5-5.5-11.1-16.1-19.6-29.1-23.1-7.5-2.1-21-2.5-29-1h0ZM516.47,121.69c3.5,1.9,7.7,5.6,7,6.3-.4.3-.2.6.3.6s1.1,1,1.2,2.2c.3,3.2-.7,8.8-1.6,8.6-.4-.1-3.2.6-6.3,1.5-6.1,1.8-16.8,4.1-24.1,5.2-3.2.4-4.8-.37-4.8-2.3,0-8.6,5.6-18.2,12.4-21.3,4.6-2.1,12.6-2.5,15.9-.8h0ZM612.07,95.99c-.3.3-2.3.8-4.4,1.1-6.8.8-16.4,6.1-22.6,12.4-5.8,5.9-13.6,19.2-12.4,21.1.4.6.2,1-.3,1-1.7,0-3.7,12.3-3.7,22,.1,9.9,2.1,22.3,3.6,21.4.5-.3.8.6.7,1.9-.2,2.8,3,10.7,4.4,10.7.5,0,.7.4.4.9-.8,1.2,6.4,9.2,7.6,8.5.7-.5.8-.2.4.5-.5.8,0,1.4,1.3,1.8,1.2.3,2.1.9,2.1,1.4,0,1.5,8,5,14.9,6.5,11.3,2.4,24.7-.3,32.7-6.7l4.9-3.9.3,6.5c.2,3.5-.2,8.1-.7,10.2-.6,2.1-1.1,4.2-1.3,4.8-.1.5-1.2,1.8-2.5,2.8s-2.1,2.3-1.7,2.8c.3.5.2.8-.3.7-.4-.1-2.4.6-4.3,1.7-4.9,2.6-17.5,3.2-26.3,1.1-7.3-1.7-12.7-4.2-19.6-8.9-2.4-1.7-4.1-2.5-3.7-1.9.4.7.2,1.2-.3,1.2-.6,0-1.1,1.3-1.1,3,0,1.6-.4,3-.9,3-1.1,0-3.5,6.7-3.3,9.3,0,.9-.3,1.5-.8,1.2-.6-.3-.7.1-.4.9.3.9.2,1.6-.3,1.6s-.8,1.3-.5,2.8c.3,2,1.4,3.4,4,4.8,1.9,1,3.8,1.7,4,1.6.3-.2.8.1,1.1.6,2.3,3.4,24.3,8.2,38.2,8.2s30.8-4.4,36.3-9.5c1.5-1.4,3.1-2.5,3.5-2.5,1.1,0,7.4-7.7,9.9-12.2,5.3-9.4,5.5-10.9,5.9-61.8.4-45.8.4-47.6,2.3-49.2,1.7-1.4,2-2.9,2-9.7s-.2-8.1-1.7-8.1c-1.4,0-1.5-.2-.4-.9.8-.5-5.9-.7-16-.4-9.6.3-17.8.9-18.2,1.3-.5.4-1,1.6-1.2,2.6-.2,1.1-.4,2-.4,2.1-.1.1-1.2-.9-2.6-2.3-4.2-4.2-13.1-7.7-20.9-8.2-3.9-.2-7.4-.1-7.7.2h0ZM632.07,124.09c3.9,2,7.8,6.8,9.2,11.3.7,2.4,1,9.5.7,18.7-.3,13.6-.6,15.4-2.8,19.5-5.6,10.4-20.1,12.1-28.2,3.4-1.4-1.6-3.4-5.2-4.3-7.9-2.4-6.6-2.4-22.9-.2-30.5,1.9-6.3,6.7-12.6,11.1-14.6,4.1-1.8,11-1.7,14.5.1h0ZM738.37,96.59c-2.9.4-5.8,1.3-6.6,1.9-.7.6-1.5.8-1.8.5s-3.4.9-6.8,2.6c-6.8,3.5-6.7,3.4-12.5,8.3-3.9,3.4-11.2,12.7-10,12.7.4,0-.1.7-1,1.6s-1.4,2.3-1.1,3.1.2,1.1-.4.8c-.9-.6-4.8,11.2-5,15-.1,1.1-.3,5.3-.6,9.2-.9,12.2,3,29.7,7.6,34.3,1,1,1.6,2,1.4,2.3-.3.3,2.2,3.4,5.5,6.9,5.8,6.2,17.8,13.7,22.8,14.3,1,.1,2.7.6,3.8,1.1s9.2.9,18,.8c14.3,0,16.8-.3,23.5-2.6,8.1-2.7,20.8-9.6,22.4-12.1,1.1-1.7-4.9-18.7-6.7-18.7-.5,0-.6-.8-.3-1.8.5-1.4.4-1.4-.9.2-1.3,1.7-1.9,1.5-1.6-.6,0-.3-2.5.9-5.7,2.8-15.7,9.5-36.3,10.2-45.9,1.6-4.1-3.6-8-11.1-6.4-12.1.6-.4,7.6-1.8,15.4-3.1,16.7-2.7,40.7-8.4,41.7-10,.3-.6,1.7-1.2,3-1.5,1.2-.2,2.3-.6,2.4-.7.1-.2,1-1.5,1.9-3.1,4.5-7,4-20.2-.9-30.1-2.4-4.7-7.4-11.5-7.4-10,0,.3-.9-.5-2-1.9-2.1-2.7-8.2-6.9-9.7-6.6-1.9.3-.5.8,0,0,1.6-2.6-26-6.7-36.1-5.1h0ZM755.87,121.69c4.5,1.7,7.8,6,8.1,10.5.1,2.1-.1,4.5-.6,5.1-1.2,1.8-10.8,4.9-19.6,6.4-4.2.7-7.6,1.5-7.6,1.8,0,.4-2,.7-4.5.8-4.1.2-4.5,0-4.5-2.1,0-4.2,3.2-12.4,6.2-16.1,5.5-6.6,14.9-9.3,22.5-6.4h0ZM932.67,96.59c-11.3,1.3-20.7,5.2-29.6,12.3-5.9,4.7-14.3,16.3-13.4,18.5.3.7.1,1.1-.4.8-.4-.3-1.9,2.9-3.2,7.2-1.9,6.2-2.4,9.9-2.4,19.2,0,6.3.4,12.4.9,13.5s1,3.3,1.2,4.8c.6,4.7,7.2,17,10.9,20.4,1.9,1.7,3.5,3.5,3.6,4,0,1.2,5.9,5.6,7.5,5.6.8,0,1.4.4,1.4.8,0,1.5,9.3,5.6,16.7,7.4,10.7,2.6,27.3,1.7,36.8-1.9,3.9-1.5,7.6-3.4,8.3-4.3.6-.9,1.2-1.3,1.2-.9s1.2-.2,2.8-1.3c15.3-11.2,22.2-26.5,22.2-48.9-.1-18.9-4.5-30.8-16-42.3-12-12.1-28.5-17.2-48.5-14.9h0ZM945.87,121.29c-.4.4.6,1.2,2.2,1.9,4,1.7,8.8,8.5,10.7,15.2,1.3,4.2,1.5,8.3,1,19-.6,15.9-.8,17.2-1.8,17.2-.4,0-.4.7-.1,1.7.4,1.1.3,1.4-.5.9-.7-.4-1.2-.2-1.2.3,0,.6-1.6,2.9-3.6,5.1-9.3,10.3-23.7,6.1-29.5-8.7-2-5-2.3-7.6-2.4-18.8,0-14.1.9-18.7,5.1-25.1,3.4-5.3,7.5-7.7,14.4-8.5,3-.3,5.7-.7,5.9-.8.2,0,.1.2-.2.6h0Z"/>
  <g id="fleur_-_copie">
    <g>
      <path class="st1" d="M9.4,62.01c-.71.71-1.3,1.51-1.3,1.8s-.25.88-.59,1.34c-.29.46-.5,1.25-.46,1.76s-.08.84-.29.71c-.17-.13-.33.21-.38.75,0,.54-.13,1.34-.21,1.8-.46,1.8-.67,2.97-.79,3.97-.04.59-.21,1.34-.33,1.67-.5,1.42-1.13,4.98-1.3,7.36-.08,1.42-.25,2.76-.42,3.01-.13.21-.54,3.6-.92,7.44-.67,7.07-.92,27.3-.33,28.22.13.25.33,1.92.38,3.72.08,1.8.33,3.64.63,4.14.25.5.33,1.09.21,1.3-.33.54,1,8.4,1.51,9.03.21.25.25.54.17.67-.25.25.96,6.1,1.38,6.81.17.21.33.79.38,1.25.08.46.42,1.55.75,2.42.33.84.63,1.88.63,2.26,0,.88,2.59,7.78,3.05,8.11.21.13.33.42.29.63-.04.42,2.13,5.69,2.47,6.02.13.13.29.38.33.63.13.71,1.38,2.97,1.38,2.51.04-.54,2.05,3.22,2.09,3.85,0,.29.29.88.63,1.25.33.42.67.92.67,1.17.04.21.46.96.96,1.67.46.67.88,1.38.88,1.55,0,.13.42.75.96,1.34.5.63.92,1.25.92,1.42,0,.59,1.97,3.01,2.22,2.76.13-.17.38.21.54.84.13.59.42.96.63.84s.38.17.38.63.21.96.5,1.13c.29.21.33.13.13-.25s-.17-.46.17-.25c.25.17.75.92,1.05,1.71.33.75,1,1.59,1.46,1.88.5.25.79.63.67.79-.13.21.63,1.09,1.67,1.96,1.05.84,1.88,1.71,1.88,1.92s.29.67.63,1c.33.38.63.54.63.38,0-.38,1,.67,1.84,1.96.42.63.92,1.05,1.13.92s.38.08.38.46c0,.33.29.75.67.92.38.13,1.34.96,2.22,1.8.84.88,1.92,1.71,2.42,1.84.54.17.92.46.84.67-.08.42,3.64,3.34,4.26,3.34.25,0,1.05.5,1.71,1.13,2.26,2.09,2.51,2.26,3.01,1.96.25-.17.33-.13.17.17-.13.25.59.84,1.71,1.42,1.13.54,2.22,1.17,2.42,1.46.46.59,6.56,3.47,7.32,3.47.25,0,.38.17.25.38-.29.46,1.67,1.34,2.47,1.05.33-.17.63-.04.63.21,0,.5,2.38,1.59,3.05,1.38.17-.04.29.08.29.25,0,.33,3.09,1.59,3.18,1.3,0-.08.29.04.63.29.63.5,2.88,1.21,3.47,1.05.17-.04.59.17.92.42s.59.33.59.17.25-.13.54.13c.46.38,8.03,2.26,11.16,2.8,8.65,1.38,27.72,1.25,31.69-.25.63-.25,1.76-.5,2.59-.59,2.17-.25,3.18-.5,4.22-1.09.84-.42.59-.59-2.59-1.42-1.92-.5-5.39-1.63-7.69-2.51-4.22-1.59-13.21-6.06-14.47-7.15-.33-.33-.79-.59-.92-.59-.17,0-1.25-.67-2.38-1.46s-2.26-1.46-2.47-1.46-.46-.13-.54-.33c-.04-.17-1.17-1.17-2.42-2.17-4.06-3.3-8.78-8.03-13.21-13.25-2.38-2.76-4.35-5.18-4.35-5.35s-.54-1-1.25-1.88c-.67-.88-1.25-1.71-1.25-1.88,0-.13-.59-1.09-1.25-2.13-2.09-2.97-6.48-11.87-8.57-17.18-.79-2.13-3.39-10.95-4.18-14.42-1.09-4.68-2.3-14.8-2.55-21.24-.29-6.15.29-16.97,1.09-21.53,1.63-9.16,5.14-22.03,7.27-26.76,2.63-5.85,3.68-8.74,3.22-8.91-.29-.08-.84-.5-1.21-.92-.67-.67-1.76-1.17-2.8-1.3-.21,0-.63-.21-.88-.42-.67-.54-7.53-2.88-8.53-2.88-.46,0-.84-.21-.84-.5,0-.25-.13-.33-.29-.21-.13.17-.46.13-.71-.08-.67-.54-4.93-1.88-5.77-1.8-.42,0-.75-.13-.75-.29s-.59-.33-1.3-.38c-.71,0-1.51-.21-1.8-.46-.54-.46-7.19-2.13-8.78-2.26-.5,0-.96-.17-1.09-.29-.33-.46-9.57-2.17-10.03-1.88-.25.13-.42.08-.42-.13,0-.46-7.07-1.38-12.38-1.59-2.81-.11-4.67.25-5.56,1.09h0l-.04-.02ZM249.97,61.22c-1.8.25-3.43.63-3.6.88s-.46.33-.71.21c-.46-.33-5.56.54-10.54,1.8-1.96.46-3.93.96-4.39,1.05-2.97.63-6.31,1.67-6.56,2.05-.17.25-.42.29-.59.13s-.54-.08-.88.21c-.29.25-.67.33-.79.21-.29-.29-11.79,3.72-12.58,4.39-.29.25-.54.29-.54.13s-.25-.08-.59.17c-.33.29-1,.59-1.51.67-.54.08-1.25.46-1.67.84-.38.33-1.09.63-1.55.63-1.34,0-3.39.84-3.64,1.51-.17.42-.54.54-1.09.38-.46-.17-.84-.08-.84.17s.29.46.67.46c.5,0,.63.29.46,1.13-.13.75.04,1.51.59,2.17.42.54.79,1.3.79,1.67,0,.42.17.88.33,1.13.33.33,1.92,5.18,3.64,11.04.84,2.8,1.8,7.36,2.26,10.66.21,1.59.63,4.52.92,6.48.84,5.69.67,21.95-.29,28.01-.25,1.51-1.63,8.86-2.26,11.92-.54,2.59-3.26,10.83-5.1,15.43-2.26,5.56-6.69,14.05-9.28,17.77-.71,1-1.84,2.63-2.55,3.64-.67.96-1.63,2.22-2.09,2.76s-1.3,1.67-1.88,2.47c-2.76,3.85-13.55,14.63-18.4,18.4-3.93,3.05-10.08,7.07-10.79,7.07-.25,0-.5.17-.59.38-.13.38-7.86,4.43-10.37,5.44-.79.33-2.26.92-3.22,1.34-.96.46-2.47.96-3.34,1.13l-1.59.33,3.34.92c3.34.88,7.27,1.63,10.45,1.96,10.91,1.13,11.83,1.17,19.4.67,4.26-.29,8.03-.67,8.45-.88.38-.21,1.8-.5,3.14-.63,2.76-.29,10.16-2.17,10.91-2.8.25-.21.71-.33,1.05-.25.54.08,3.34-.84,6.06-2.01.71-.33,1.42-.59,1.59-.59.38,0,3.8-1.55,6.27-2.84,1.17-.59,3.18-1.63,4.52-2.3,1.3-.67,2.38-1.42,2.38-1.63s.17-.29.38-.17c.21.17.96-.21,1.63-.79s1.46-1.05,1.71-1.05c.21,0,1-.59,1.71-1.25s1.55-1.25,1.84-1.25,1.55-.92,2.8-2.09c1.25-1.13,2.42-2.09,2.59-2.09.38,0,.75-.29,4.31-3.68,1.55-1.42,2.97-2.59,3.18-2.59s.25-.21.13-.42c-.13-.25,0-.42.33-.42.63,0,2.3-1.63,2.34-2.3.04-.25.25-.42.46-.42.5,0,3.34-3.47,3.34-4.01,0-.21.13-.33.33-.29.17.08.33.04.38-.08s.92-1.17,2.01-2.3c1.05-1.17,2.01-2.51,2.13-3.05.17-.5.42-.92.59-.92.21,0,.5-.38.63-.84.17-.46.46-.75.67-.63.21.17.38.04.38-.21s.33-.84.75-1.3c.46-.42,1.05-1.34,1.38-1.96s.67-1.21.79-1.34c.79-.75,2.51-3.85,2.3-4.14-.13-.21-.08-.46.08-.54.63-.25,2.17-2.76,2.47-3.93.17-.67.63-1.59,1-2.05.92-1,2.09-3.76,2.09-4.89,0-.42.17-.71.33-.59.17.08.38-.21.38-.67.04-.5.33-1.05.63-1.21.42-.29.42-.38.04-.38-.29,0-.54-.21-.54-.46,0-.21.21-.29.42-.17.25.13.42-.04.42-.38,0-.38.21-.67.46-.67s.38-.25.25-.59c-.13-.29.04-.96.38-1.46.33-.46.5-.88.33-.88-.13,0-.04-.25.21-.54.25-.33.33-.71.17-.84-.13-.17-.04-.29.25-.29s.38-.42.21-1.17-.13-.96.17-.54c.29.38.54-.04.96-1.67.33-1.25.54-2.51.54-2.8-.04-.25.13-.5.33-.5s.33-.25.25-.5c-.13-.29.13-1.38.5-2.42s.67-2.26.59-2.63c-.04-.38.04-.71.17-.71.17,0,.33-.42.38-.96,0-.5.33-2.05.71-3.43.67-2.63,1.17-6.23,2.13-14.84.59-5.14.88-23.04.38-23.54-.13-.13-.29-1.88-.38-3.93-.21-6.4-1.42-16.56-2.17-18.52-.13-.33-.21-.92-.17-1.34.04-.38-.13-.79-.38-.96-.21-.13-.42-1.09-.42-2.13s-.21-1.84-.46-1.84c-.21,0-.33-.17-.21-.33.29-.5-.88-5.89-1.42-6.56-.25-.29-.38-.71-.33-.88.17-.5-1.67-3.39-2.3-3.64-.88-.33-7.48-.21-10.95.17h0v-.08ZM165.27,96.76c-4.68,3.76-8.91,7.48-8.49,7.48.13,0,1.34-1,2.72-2.22,1.38-1.17,2.8-2.17,3.22-2.17.38,0,.71-.29.71-.63.04-.33.29-.59.59-.5.29.04.42-.08.29-.29s1.17-1.46,2.88-2.76c2.84-2.17,3.43-2.72,3.01-2.72-.08,0-2.3,1.71-4.93,3.8h0ZM152.31,108.34c-4.47,4.72-8.61,9.41-10.37,11.79-1.3,1.71-1.3,1.76-.21.63.67-.71,1.71-1.92,2.3-2.72,1-1.34,6.77-7.57,10.54-11.41.88-.88,1.55-1.71,1.42-1.8-.08-.13-1.76,1.46-3.68,3.51h0ZM118.98,186.06c.08,8.45.25,7.69.42-1.88.08-3.26,0-5.94-.17-5.94-.21,0-.29,3.51-.25,7.82Z"/>
      <path class="st1" d="M125.17,216.83c0,.88,4.85,7.99,6.27,9.11.92.75,1.55,1.51,1.42,1.67-.13.21.04.25.38.13.46-.17.04-.79-1.46-2.17-1.88-1.76-4.93-5.85-4.93-6.69-.04-.42-1.67-2.47-1.67-2.05h-.01Z"/>
    </g>
    <path class="st0" d="M192.69,79.45c-6.81,3.6-12.75,7.23-12.75,7.78,0,.25-.13.29-.25.17-.29-.25-2.63,1.17-3.14,1.92-.13.21-.42.33-.63.29-.84-.08-11.96,8.32-11.62,8.82.13.21,0,.33-.29.29-.29-.08-.54.17-.59.5,0,.33-.29.63-.63.63-.38,0-.92.21-1.25.5-2.72,2.22-5.52,4.77-7.02,6.35-1,1.05-3.18,3.34-4.85,5.06-1.63,1.71-3.85,4.18-4.85,5.44-1.05,1.25-2.01,2.34-2.17,2.42-.21.08-.33.54-.33.96,0,.46-.17.75-.38.63-.46-.29-4.22,4.93-4.22,5.77,0,.33-.25.67-.54.79s-1,1.13-1.59,2.22c-.54,1.13-1.3,2.38-1.71,2.8-.63.75-5.77,10.79-5.77,11.33,0,.13-.46,1.21-1.05,2.42-.59,1.17-1.05,2.51-1.05,2.93s-.17,1.09-.38,1.51c-1.05,2.01-1.8,4.22-1.55,4.64.17.25.13.46-.08.46-.38,0-1.21,2.84-2.17,7.32-.21.92-.5,2.22-.63,2.93-.42,1.8-.63,3.22-1.25,7.73-.67,4.81-.54,21.61.17,25.29,1,5.06,2.26,9.83,2.63,9.83.21,0,.29.17.17.33-.25.42,1.05,4.14,2.22,6.35,2.55,4.93,4.22,7.44,6.44,9.57l1.88,1.8,2.68-.17c1.42-.08,3.47-.59,4.52-1.05s2.55-1.09,3.34-1.42c2.51-1,10.24-5.06,10.37-5.44.08-.21.33-.38.59-.38.71,0,6.86-4.01,10.79-7.07,4.85-3.76,15.64-14.55,18.4-18.4.59-.79,1.42-1.92,1.88-2.47s1.42-1.8,2.09-2.76c.71-1,1.84-2.63,2.55-3.64,2.59-3.72,7.02-12.21,9.28-17.77,1.84-4.6,4.56-12.84,5.1-15.43.63-3.05,2.01-10.41,2.26-11.92.96-6.06,1.13-22.33.29-28.01-.29-1.97-.71-4.89-.92-6.48-.46-3.3-1.42-7.86-2.26-10.66-1.71-5.85-3.3-10.7-3.64-11.08-.17-.21-.33-.67-.33-1.09,0-.38-.38-1.13-.79-1.67-.5-.67-.71-1.42-.59-2.09.38-1.92-1.05-1.67-6.35,1.17h0l-.03.05Z"/>
    <g id="Calque_2_-_copie">
      <path class="st2" d="M133.59,2.21c-.54.21-.84.54-.71.79.13.21-.04.42-.46.42-.71,0-4.77,2.8-4.77,3.26,0,.17-.42.5-.92.71-.54.25-.92.71-.84,1,.04.29-.04.42-.25.29-.59-.33-6.81,5.18-6.48,5.77.13.25.13.33-.08.17-.38-.38-5.02,3.68-5.02,4.39,0,.29-.17.5-.42.5-.79,0-1.46.67-1.21,1.13.17.25.08.33-.17.17-.5-.29-6.23,5.85-6.02,6.48.04.25-.04.33-.25.21s-.84.25-1.38.88c-.54.59-.75.96-.42.75.38-.21.5-.17.29.13-.17.29-.59.5-.96.5s-.54.13-.42.29c.17.13-.04.5-.46.84-.38.33-.46.46-.13.29.38-.21.5-.13.29.21-.17.25-.46.38-.67.25-.38-.21-3.05,2.84-2.93,3.34,0,.13-.59.84-1.34,1.55-.75.67-1.09,1.13-.75.96s.13.13-.5.67c-1.63,1.42-3.26,3.76-2.97,4.26.13.25.04.29-.21.13-.5-.29-2.3,2.01-1.88,2.42.13.13.04.25-.21.25-.5,0-4.1,4.98-3.93,5.52.04.17-.08.33-.29.33-.59,0-2.59,3.34-2.3,3.85.17.25.13.33-.13.21-.38-.25-1.13.84-.96,1.3.04.08-.29.42-.71.79-.42.33-.46.46-.13.29s.21.13-.33.63c-.5.5-.84,1.09-.71,1.3.13.17-.04.42-.33.54-.59.21-3.89,6.1-3.72,6.65.04.17-.13.33-.38.33-.21,0-.29.21-.17.46.17.25-.08.79-.59,1.25-.79.75-.96,1.09-.84,1.88,0,.17-.17.42-.38.54s-.71.88-1.09,1.63c-.84,1.63-1.67,2.05-2.55,1.34-.42-.38-.63-.38-.63-.04,0,.25.13.46.33.46.17,0,.54.17.88.38.54.38-.21,2.59-3.14,9.03-1.51,3.39-4.52,13.55-5.98,20.28-1.42,6.69-1.71,8.74-2.17,15.47-1.3,17.89,1.84,37.59,8.28,52.39,1.76,4.01,5.39,10.95,6.81,13,.67,1.05,1.25,2.01,1.25,2.13,0,.17.59,1,1.25,1.88.71.88,1.25,1.71,1.25,1.88s1.97,2.59,4.35,5.35c4.43,5.23,9.16,9.95,13.21,13.25,1.25,1,2.38,2.01,2.42,2.17.08.21.33.33.54.33s1.34.67,2.47,1.46,2.22,1.46,2.38,1.46c.13,0,.59.25.92.59,1.3,1.17,9.95,5.39,14.63,7.19,4.6,1.76,11.62,3.76,12,3.43.08-.13-.59-.79-1.46-1.51-1.46-1.17-5.1-6.52-6.61-9.7-2.47-5.1-4.68-13.34-5.56-20.49-.59-4.93-.5-15.59.17-21.32.71-5.69,2.3-13,4.31-19.61,6.98-23.12,22.41-43.9,45.28-61.04,2.84-2.13,4.64-3.34,12.75-8.61,2.97-1.97,15.13-8.57,15.72-8.57.54,0,.17-1.25-1.38-4.39-2.42-4.89-5.06-9.37-5.39-9.16-.21.13-.25-.04-.17-.33.13-.33-.08-.92-.46-1.38-.33-.46-.54-.59-.38-.33.46.92-.17.59-.67-.33-.33-.67-.33-.84.04-.59s.38.08,0-.59c-.25-.5-.67-.79-.88-.63-.25.13-.38,0-.33-.29.17-.84-1.25-3.39-1.71-3.09-.25.13-.29-.04-.17-.38.17-.38-.04-.75-.42-.92-.38-.13-.59-.42-.46-.63.13-.17-.25-.67-.84-1.05-.54-.38-.92-.84-.84-1.05.29-.42-4.68-7.48-5.27-7.48-.25,0-.33-.17-.21-.38.29-.46-1.17-1.8-1.59-1.42-.17.17-.17,0-.04-.38.17-.38.04-.79-.25-1-.33-.21-.42-.13-.17.25.21.38.17.46-.13.25-.29-.17-.5-.54-.5-.88,0-.79-2.09-3.18-2.55-2.93-.21.17-.25,0-.17-.29.13-.33-1.38-2.38-3.47-4.72-5.31-6.02-5.98-6.69-6.44-6.56-.21.04-.29-.08-.17-.29.25-.42-10.12-10.45-12.96-12.58-.96-.67-1.88-1.09-2.05-.92-.21.17-.21.08-.08-.21.38-.59-4.1-4.47-4.68-4.14-.21.17-.54.04-.71-.21-.21-.33-.13-.38.25-.17s.46.17.25-.13c-.17-.29-.59-.5-.92-.5s-.59-.17-.59-.42c0-.71-3.68-2.93-4.43-2.63-.5.17-.63.13-.42-.21.38-.59-1.17-.63-2.59-.04h0l.09.04Z"/>
    </g>
  </g>
</svg>